<svg width="53" height="53" viewBox="0 0 53 53" fill="none" xmlns="http://www.w3.org/2000/svg">
<rect x="0.752808" y="0.330566" width="51.9792" height="51.9792" rx="25.9896" fill="#E4F7F2"/>
<path d="M28.9338 33.7015L28.2678 31.1204C28.1845 30.8152 27.8792 30.6209 27.5739 30.7042C27.2687 30.7874 27.0744 31.0927 27.1576 31.398L27.8237 34.0068C27.1299 34.3953 26.6581 35.1169 26.6581 35.9495C26.6581 37.1984 27.6572 38.1975 28.9061 38.1975C30.155 38.1975 31.1541 37.1984 31.1541 35.9495C31.1818 34.7284 30.1827 33.7292 28.9338 33.7015Z" fill="#26C296"/>
<path d="M21.4423 27.3446L17.9177 28.5657C17.5014 28.0661 16.8908 27.7331 16.1692 27.7331C14.9203 27.7331 13.9212 28.7322 13.9212 29.9811C13.9212 31.23 14.9203 32.2291 16.1692 32.2291C17.4181 32.2291 18.4172 31.23 18.4172 29.9811C18.4172 29.8701 18.3895 29.7313 18.3895 29.6203L21.8031 28.4269C22.1084 28.3159 22.2472 28.0106 22.1639 27.7054C22.0806 27.4001 21.7476 27.2336 21.4423 27.3446Z" fill="#26C296"/>
<path d="M36.6498 24.9307C35.5952 24.9307 34.7349 25.6522 34.4851 26.5959H31.793C31.4877 26.5959 31.2102 26.8456 31.2102 27.1509C31.2102 27.4562 31.46 27.706 31.793 27.706H34.4573C34.7071 28.6773 35.5952 29.3712 36.6221 29.3712C37.871 29.3712 38.8701 28.3721 38.8701 27.1232C38.8701 25.8743 37.8987 24.9307 36.6498 24.9307Z" fill="#26C296"/>
<path d="M26.6601 30.0928C28.7446 30.0928 30.4345 28.4154 30.4345 26.3462C30.4345 24.2769 28.7446 22.5995 26.6601 22.5995C24.5755 22.5995 22.8856 24.2769 22.8856 26.3462C22.8856 28.4154 24.5755 30.0928 26.6601 30.0928Z" fill="#26C296"/>
<path d="M23.2463 22.1562L22.0251 21.2403C22.1361 20.9628 22.1916 20.6852 22.1916 20.38C22.1916 19.1311 21.1925 18.132 19.9436 18.132C18.6947 18.132 17.6956 19.1311 17.6956 20.38C17.6956 21.6289 18.6947 22.628 19.9436 22.628C20.4709 22.628 20.9427 22.4337 21.3313 22.1562L22.5524 23.0998C22.6634 23.183 22.7744 23.2108 22.8855 23.2108C23.052 23.2108 23.2185 23.1275 23.3295 22.9888C23.5515 22.7112 23.496 22.3504 23.2463 22.1562Z" fill="#26C296"/>
<path d="M29.0214 22.3776C29.1047 22.4331 29.2157 22.4609 29.3267 22.4609C29.521 22.4609 29.7152 22.3499 29.8263 22.1834L31.6025 19.2415C31.8522 19.3248 32.102 19.3803 32.3518 19.3803C33.6007 19.3803 34.5998 18.3812 34.5998 17.1323C34.5998 15.8834 33.6007 14.8843 32.3518 14.8843C31.1029 14.8843 30.1038 15.8834 30.1038 17.1323C30.1038 17.6873 30.3258 18.1869 30.6589 18.6032L28.8549 21.6005C28.6606 21.8503 28.7439 22.2111 29.0214 22.3776Z" fill="#26C296"/>
</svg>
